<?xml version="1.0" encoding="utf-8"?>
<svg version="1.0" xmlns="http://www.w3.org/2000/svg" viewBox="75 268 520 76" role="img" aria-label="Dmarcontrol">
<style type="text/css">
	.icon{fill-rule:evenodd;clip-rule:evenodd;fill:#654E9B;}
	.wordmark{fill:#161123;font-family:Inter,Arial,Helvetica,sans-serif;font-size:52px;font-weight:500;letter-spacing:0;}
</style>
<g>
	<path class="icon" d="M97.26,277.13c0-2.01,1.63-3.65,3.65-3.65h63.18c2.01,0,3.65,1.63,3.65,3.65s-1.63,3.65-3.65,3.65h-63.18
		C98.9,280.78,97.26,279.15,97.26,277.13C97.26,277.13,97.26,277.13,97.26,277.13z M81.57,274.33c1.54-1.29,3.84-1.08,5.13,0.46
		c0,0,0,0,0,0l45.8,54.98l45.8-54.98c1.28-1.56,3.57-1.78,5.13-0.51c1.56,1.28,1.78,3.57,0.51,5.13c-0.01,0.01-0.02,0.03-0.04,0.04
		l-48.6,58.34c-1.29,1.55-3.59,1.76-5.13,0.47c-0.17-0.14-0.33-0.3-0.47-0.47l-48.6-58.34C79.81,277.92,80.02,275.62,81.57,274.33
		L81.57,274.33z M183.4,313.19c1.56,1.27,1.8,3.57,0.53,5.13l-15.8,19.45c-1.27,1.56-3.57,1.8-5.13,0.53
		c-1.56-1.27-1.8-3.57-0.53-5.13l15.8-19.45C179.54,312.16,181.83,311.92,183.4,313.19C183.39,313.19,183.39,313.19,183.4,313.19
		L183.4,313.19z M183.93,298.88c1.21-1.61,0.89-3.9-0.71-5.11c-1.53-1.15-3.68-0.93-4.94,0.51l-31.59,38.9
		c-1.2,1.62-0.87,3.9,0.75,5.11c1.52,1.13,3.65,0.91,4.91-0.51L183.93,298.88z M81.51,314.48c-1.52,1.32-1.68,3.62-0.37,5.14
		l15.79,18.23c1.32,1.52,3.62,1.69,5.14,0.37c1.52-1.32,1.69-3.62,0.37-5.14l-15.79-18.23C85.34,313.33,83.04,313.16,81.51,314.48
		C81.51,314.48,81.51,314.48,81.51,314.48L81.51,314.48z M81.11,300.14c-1.29-1.55-1.08-3.85,0.47-5.14
		c1.54-1.28,3.83-1.08,5.12,0.45l31.59,37.68c1.23,1.59,0.94,3.89-0.65,5.12c-1.51,1.16-3.65,0.98-4.93-0.43L81.11,300.14
		L81.11,300.14z M87.55,335.47c0,2.01-1.63,3.65-3.65,3.65c-2.01,0-3.65-1.63-3.65-3.65c0,0,0,0,0,0c0-2.01,1.63-3.65,3.65-3.65
		C85.91,331.83,87.55,333.46,87.55,335.47z M181.1,339.12c2.01,0,3.65-1.63,3.65-3.64c0-2.01-1.63-3.65-3.64-3.65c0,0,0,0,0,0
		c-2.01,0-3.64,1.63-3.64,3.65C177.45,337.49,179.08,339.12,181.1,339.12z M110.63,285.64c-2.01,0-3.64,1.63-3.64,3.65
		c0,2.01,1.63,3.64,3.64,3.64h43.74c2.01,0,3.64-1.63,3.64-3.65c0-2.01-1.63-3.64-3.64-3.64H110.63z M116.7,301.44
		c0-2.02,1.63-3.65,3.65-3.65h24.3c2.01,0,3.65,1.63,3.65,3.65c0,2.01-1.63,3.65-3.65,3.65h-24.3
		C118.34,305.09,116.7,303.45,116.7,301.44z M130.07,309.95c-2.01,0-3.64,1.63-3.64,3.65c0,2.01,1.63,3.64,3.64,3.64h4.86
		c2.01,0,3.64-1.63,3.64-3.65c0-2.01-1.63-3.64-3.64-3.64H130.07z"/>
	<text class="wordmark" x="215" y="324">dmarcontrol</text>
</g>
</svg>
